<svg width="1591" height="512" viewBox="0 0 1591 512" fill="none" xmlns="http://www.w3.org/2000/svg">
<path fill-rule="evenodd" clip-rule="evenodd" d="M256 0C397.385 0 512 114.615 512 256C512 397.385 397.385 512 256 512C114.615 512 0 397.385 0 256C0 114.615 114.615 0 256 0ZM256 72C154.38 72 72 154.38 72 256C72 357.62 256 256 256 440C357.62 440 440 357.62 440 256C440 154.38 256 256 256 72Z" fill="url(#paint0_linear_1_18)"/>
<path d="M721.792 248.848H855.808V291.088H721.792V248.848ZM726.016 394H676.096V125.2H872.32V167.056H726.016V394ZM915.988 394V109.072H963.988V394H915.988ZM1119.15 396.688C1098.16 396.688 1079.47 392.208 1063.08 383.248C1046.7 374.032 1033.77 361.488 1024.3 345.616C1014.83 329.744 1010.09 311.696 1010.09 291.472C1010.09 270.992 1014.83 252.944 1024.3 237.328C1033.77 221.456 1046.7 209.04 1063.08 200.08C1079.47 191.12 1098.16 186.64 1119.15 186.64C1140.4 186.64 1159.21 191.12 1175.6 200.08C1192.24 209.04 1205.16 221.328 1214.38 236.944C1223.85 252.56 1228.59 270.736 1228.59 291.472C1228.59 311.696 1223.85 329.744 1214.38 345.616C1205.16 361.488 1192.24 374.032 1175.6 383.248C1159.21 392.208 1140.4 396.688 1119.15 396.688ZM1119.15 355.6C1130.92 355.6 1141.42 353.04 1150.64 347.92C1159.85 342.8 1167.02 335.376 1172.14 325.648C1177.52 315.92 1180.2 304.528 1180.2 291.472C1180.2 278.16 1177.52 266.768 1172.14 257.296C1167.02 247.568 1159.85 240.144 1150.64 235.024C1141.42 229.904 1131.05 227.344 1119.53 227.344C1107.76 227.344 1097.26 229.904 1088.04 235.024C1079.08 240.144 1071.92 247.568 1066.54 257.296C1061.16 266.768 1058.48 278.16 1058.48 291.472C1058.48 304.528 1061.16 315.92 1066.54 325.648C1071.92 335.376 1079.08 342.8 1088.04 347.92C1097.26 353.04 1107.63 355.6 1119.15 355.6ZM1314.18 394L1238.91 188.944H1284.22L1348.74 369.808H1327.23L1394.82 188.944H1435.14L1500.8 369.808H1479.68L1546.11 188.944H1588.74L1513.09 394H1467.01L1407.1 233.872H1421.31L1360.26 394H1314.18Z" fill="#313735"/>
<defs>
<linearGradient id="paint0_linear_1_18" x1="256" y1="0" x2="256" y2="512" gradientUnits="userSpaceOnUse">
<stop stop-color="#00EA8D"/>
<stop offset="1" stop-color="#2A005E"/>
</linearGradient>
</defs>
</svg>
