<svg version="1.1" id="Layer_1" xmlns="http://www.w3.org/2000/svg" xmlns:xlink="http://www.w3.org/1999/xlink" x="0px" y="0px" viewBox="0 0 96.6 120.8" style="enable-background:new 0 0 96.6 120.8;" xml:space="preserve">
 <style type="text/css">
  .st0{fill-rule:evenodd;clip-rule:evenodd;fill:#000000;}
 </style>
 <desc>
  Created with sketchtool.
 </desc>
 <g id="Desk">
  <g id="Home-Safra" transform="translate(-130.000000, -49.000000)">
   <g id="_x30_1.HEADER">
    <g id="HEADER" transform="translate(0.000000, 45.000000)">
     <g id="LOGO" transform="translate(130.000000, 4.000000)">
      <path id="Fill-12" class="st0" d="M59.7,68.2c-0.3-5.8-2.4-9.3-4.5-11.4h0c2.8,0,6.8,2.5,6.8,6.5C61.9,65.4,61.2,67,59.7,68.2
						L59.7,68.2z M50.1,79.2v-5.5c2,0,3.9-0.2,5.5-0.6C54.9,76.9,52.8,78.7,50.1,79.2L50.1,79.2z M42.4,72.7c1,0.4,2.3,0.7,4,0.8
						v5.5C44.4,78.4,42.6,76.3,42.4,72.7L42.4,72.7z M42.4,56.8h4.1v13.4c-1.5-0.2-2.9-0.6-4.1-1.1V56.8z M36,47.8
						c0-2,0.9-3.7,2.7-5v9.8C37,51.6,36,49.8,36,47.8L36,47.8z M46.4,32.4v5c-1.4,0-2.7,0.2-3.9,0.4C43,35.3,44.4,33.3,46.4,32.4
						L46.4,32.4z M54.3,38.6c-1.1-0.4-2.5-0.8-4.2-1v-5.4C52.1,32.8,53.8,34.9,54.3,38.6L54.3,38.6z M50.1,53.3V41
						c1.5,0.2,3,0.6,4.4,1.1C54.4,47.4,51.7,52.3,50.1,53.3L50.1,53.3z M42.4,41.3c1.2-0.3,2.5-0.5,4.1-0.5v12.7h-4.1V41.3z
						 M56,69.7c-1.6,0.4-3.6,0.6-5.9,0.6V56.8c1.7,0.4,5.9,4.5,5.9,12.5C56,69.5,56,69.6,56,69.7L56,69.7z M54.6,53.4h-0.2
						c1.8-2.3,3.3-5.9,3.7-9.7c1.3,0.8,2.5,1.7,3.4,2.7c0.5,0.5,0.7,0.7,1.1,0.7c0.7,0,1.1-0.6,0.7-1.2c-1-1.6-1.4-3-1.4-4.7
						c0-1.1,0.4-2.1,0.6-2.7c0.2-0.6,0-1.2-0.7-1.2c-0.6,0-0.7,0.5-1,0.9c-0.5,0.8-1.4,1.6-2.8,1.6c-0.5-6.7-3.9-10-7.4-10.9
						c1.3-3,4.4-4.9,8.5-5.7c0.6-0.1,1.1-0.4,1.1-0.9c0-0.6-0.5-0.9-1.1-0.9c-1.4,0-3.3,0.7-4.9,1.2c-2.5,0.7-4.5,1.2-6.4,1.2
						c-3.9,0-7.4-1.7-8.5-1.7c-0.5,0-0.9,0.4-0.9,0.9c0,0.4,0.2,0.7,1,1c3.3,1.1,5.4,2.8,6.3,5.1c-1.9,0.7-3.5,2.2-4.7,4.1
						c-1.3-2.7-3-3.8-5.4-3.8c-2.3,0-4.2,1.7-4.2,3.9c0,1.5,1,2.6,2.1,2.6c0.5,0,0.7-0.2,0.7-0.6c0-0.5-0.2-0.6-0.2-1.4
						c0-0.7,0.6-1.4,1.6-1.4c1.5,0,2.8,1.5,2.8,5.6v1c-3.9,1.7-6.4,4.8-6.4,8.9c0,4.3,2.8,7.4,6.4,8.5v10.5
						c-2.8-2.2-4.3-5.1-5.3-7.3c-0.2-0.5-0.5-1.1-1.1-1.1c-0.7,0-1,0.7-0.6,1.6c0.4,0.9,0.6,2.2,0.6,3.5c0,1.5-0.5,2.9-1.5,3.9
						C30.3,68,30,68.3,30,68.7c0,0.5,0.4,0.7,0.7,0.7c0.7,0,1.6-0.9,3.2-0.9c1,0,2.2,0.5,4.2,1.7c0.2,0.1,0.4,0.3,0.6,0.4v1.5v1.7
						c0,1.7-0.7,2.9-2.2,2.9c-1,0-1.6-0.7-1.6-1.7c0-0.7,0.5-1,0.5-1.4c0-0.4-0.2-0.6-0.7-0.6c-0.7,0-2,1.1-2,3
						c0,1.7,1.2,3.9,3.8,3.9c1.5,0,2.8-0.4,4.1-1.7c1.2,1.9,3.3,3.7,5.6,4.3c-0.6,3.3-2.9,6-6.1,6c-1.6,0-2.5-0.9-2.5-2
						c0-0.9,0.6-1.4,1.1-1.6c0.6-0.2,1.1-0.4,1.1-1.1c0-0.4-0.2-0.9-1.5-0.9c-2.2,0-4.1,2-4.1,4.3c0,2.6,1.8,5.1,5.7,5.1
						c3.2,0,6.1-1.6,7.9-3.6c2.1,1.7,5.3,3.1,6.9,3.1c0.5,0,1-0.2,1-0.7s-0.5-0.9-1-1.1c-2.8-1.5-4.7-3.6-4.7-7.3v-0.1
						c4.4-0.8,8.5-4.4,9.4-10.6c4-1.7,6.1-4.7,6.1-8.7C65.6,57.4,60.2,53.4,54.6,53.4L54.6,53.4z M75.4,88.5c-4.3,0-7.1-2.5-7.1-6.2
						c0-3.1,2.1-5.6,4.5-5.6c1,0,1.8,0.4,1.8,1.4c0,0.6-0.2,1.1,0.4,1.1c0.4,0,0.7-0.4,0.7-1.4c0-1.2-1.1-2.2-2.7-2.2h-0.4
						c0.2-0.5,0.2-1,0.2-1.1c0-1.1-0.9-1.7-1.7-1.7s-1.7,0.5-1.7,1.1c0,0.2,0.1,0.4,0.4,0.4c0.4,0,0.5-0.4,1.1-0.4
						c0.5,0,0.9,0.2,0.9,0.9c0,0.9-0.7,1.2-1.4,1.6c-2,1.1-3.3,3.4-3.3,6c0,3.5,2,5.7,4.8,6.7l-1.8,2.9c-2.5,0-3.7,1.9-5.9,5.8
						c-0.2-1-1-1.7-2.2-1.7c-1.4,0-2.2,1-2.2,2.4c0,0.4,0.2,0.6,0.5,0.6c0.4,0,0.6-0.2,0.6-0.6c0-0.6,0.4-1.2,1.1-1.2
						c0.9,0,1.2,0.6,1.2,1.4c0,0.9-0.1,1.4-0.7,2.4c-2.6,4.2-6.1,6.3-9.2,6.3c-2.7,0-4.3-1.6-4.3-3.2c0-1.5,0.9-2.7,2.3-2.7
						c1,0,1.6,0.6,1.6,1.5c0,0.7-0.6,0.7-0.6,1.1c0,0.2,0.2,0.4,0.5,0.4c0.7,0,1.2-0.9,1.2-1.7c0-1.4-1.1-2.4-2.7-2.4
						c-1.5,0-2.7,1-3.1,2c-0.4-1-1.6-2-3.1-2c-1.6,0-2.7,1-2.7,2.4c0,0.9,0.5,1.7,1.2,1.7c0.2,0,0.5-0.1,0.5-0.4
						c0-0.4-0.6-0.4-0.6-1.1c0-0.9,0.6-1.5,1.6-1.5c1.5,0,2.3,1.2,2.3,2.7c0,1.6-1.6,3.2-4.3,3.2c-3.1,0-6.6-2.1-9.2-6.3
						c-0.6-1-0.7-1.5-0.7-2.4c0-0.7,0.4-1.4,1.2-1.4c0.7,0,1.1,0.6,1.1,1.2c0,0.4,0.2,0.6,0.6,0.6c0.2,0,0.5-0.2,0.5-0.6
						c0-1.4-0.9-2.4-2.2-2.4c-1.2,0-2,0.7-2.2,1.7c-2.2-4-3.4-5.8-5.9-5.8L24.6,89c2.8-1,4.8-3.2,4.8-6.7c0-2.6-1.4-4.8-3.3-6
						c-0.6-0.4-1.4-0.7-1.4-1.6c0-0.6,0.4-0.9,0.9-0.9c0.6,0,0.7,0.4,1.1,0.4c0.2,0,0.4-0.1,0.4-0.4c0-0.6-0.9-1.1-1.7-1.1
						s-1.7,0.6-1.7,1.7c0,0.1,0,0.6,0.2,1.1h-0.4c-1.6,0-2.7,1-2.7,2.2c0,1,0.4,1.4,0.7,1.4c0.6,0,0.4-0.5,0.4-1.1
						c0-1,0.9-1.4,1.8-1.4c2.5,0,4.5,2.5,4.5,5.6c0,3.7-2.8,6.2-7.1,6.2c-5,0-8.8-3.7-8.8-8.9c0-5.1,2.9-8.6,6.3-11.7l2.8-2.7
						c3.6-3.4,5-6.8,5-11.2c0-4.7-2.8-9.9-8.7-12.5c1.2-0.4,2-1.6,2-3.1c0-1-0.4-1.6-0.4-2.4c0-1.5,0.9-2.4,2.1-2.4
						c1.1,0,1.8,0.9,1.8,1.7c0,0.7-0.5,1.4-1.4,1.4c-0.4,0-0.6,0-0.6,0.4c0,0.4,0.4,0.5,0.9,0.5c1.5,0,2.2-1.2,2.2-1.9
						c0.2,0.1,0.5,0.2,0.9,0.2c0.9,0,1.5-0.6,1.5-1.5c0-0.2-0.1-0.6-0.5-0.6c-0.2,0-0.4,0.2-0.4,0.5c0,0.4-0.2,0.6-0.6,0.6
						c-0.5,0-0.9-0.4-1.1-0.9c-0.5-0.9-1.5-1.6-2.7-1.6c-1.6,0-2.8,1.1-3.1,2.6c-0.7-0.7-1.6-1.5-2.8-2.2c1-0.6,1.8-1.1,2.8-1.9
						c1.5-1.1,2.8-2.4,4.3-4l6.8-7.5c5.9-6.6,9.7-8.2,13.4-8.2c3.2,0,4.8,1.6,4.8,3.5c0,1.4-0.6,2.4-1.5,2.9
						c-0.5-0.5-0.9-1.3-1.1-2.1c-0.1-0.6-0.2-0.6-0.4-0.6c-0.2,0-0.2,0.2-0.2,0.5c0,1.1,0.3,1.9,0.7,2.6c-0.1,0-0.3,0-0.4,0
						c-1.2,0-2-0.6-2-1.4c0-0.1,0-0.4,0.2-0.6c0.2-0.2,0.1-0.4,0-0.4c-0.5,0-1,0.6-1,1.4c0,0.9,0.7,2.1,2.8,2.1c0.3,0,0.7,0,1.2-0.2
						c0.7,0.5,1.5,0.8,2.4,0.8c0.9,0,1.7-0.3,2.4-0.8c0.4,0.1,0.9,0.2,1.2,0.2c2.1,0,2.8-1.2,2.8-2.1c0-0.7-0.5-1.4-1-1.4
						c-0.1,0-0.2,0.1,0,0.4c0.2,0.2,0.2,0.5,0.2,0.6c0,0.7-0.7,1.4-2,1.4c-0.1,0-0.3,0-0.4,0c0.4-0.7,0.7-1.5,0.7-2.6
						c0-0.2,0-0.5-0.2-0.5c-0.1,0-0.2,0-0.4,0.6c-0.2,0.9-0.6,1.6-1.1,2.1c-0.9-0.5-1.5-1.5-1.5-2.9c0-1.9,1.6-3.5,4.8-3.5
						c3.7,0,7.5,1.6,13.4,8.2L74,27c1.4,1.6,2.8,2.9,4.3,4c1,0.7,1.8,1.2,2.8,1.9c-1.2,0.7-2.1,1.5-2.8,2.2
						c-0.2-1.5-1.5-2.6-3.1-2.6c-1.2,0-2.2,0.7-2.7,1.6c-0.2,0.5-0.6,0.9-1.1,0.9c-0.4,0-0.6-0.2-0.6-0.6c0-0.2-0.1-0.5-0.4-0.5
						c-0.4,0-0.5,0.4-0.5,0.6c0,0.9,0.6,1.5,1.5,1.5c0.4,0,0.6-0.1,0.9-0.2c0,0.6,0.7,1.9,2.2,1.9c0.5,0,0.9-0.1,0.9-0.5
						c0-0.4-0.2-0.4-0.6-0.4c-0.9,0-1.4-0.5-1.4-1.4c0-0.9,0.7-1.7,1.8-1.7c1.2,0,2.1,0.9,2.1,2.4c0,0.7-0.4,1.4-0.4,2.4
						c0,1.5,0.7,2.7,2,3.1c-5.9,2.6-8.7,7.8-8.7,12.5c0,4.3,1.5,7.8,5,11.2l2.8,2.7c3.3,3.1,6.3,6.6,6.3,11.7
						C84.3,84.7,80.5,88.5,75.4,88.5L75.4,88.5z M48.3,111.6c-1-2-2.1-3.2-2.6-3.9c1.2-0.5,2.1-1.4,2.6-2.4c0.5,1,1.4,1.9,2.6,2.4
						C50.4,108.3,49.3,109.6,48.3,111.6L48.3,111.6z M49.5,18.4c-0.4,0.2-0.8,0.3-1.2,0.3c-0.4,0-0.9-0.1-1.2-0.3
						c0.5-0.4,0.9-0.9,1.2-1.7C48.6,17.5,49,18,49.5,18.4L49.5,18.4z M86.3,74.2c-0.7,0-1.4,0.4-1.6,0.9c-1-2.2-2-4.3-6.3-8.3
						c0.2,0.1,1.1,0.2,1.7,0.2c1.4,0,2.8-0.4,3.7-1.2c0.2,0.9,1,1.4,1.8,1.4c1.4,0,1.8-0.9,1.8-1.9c0-0.4-0.1-0.7-0.5-0.7
						c-0.7,0-0.1,1.5-1.4,1.5c-0.5,0-0.9-0.4-0.9-1c0-0.6,0.4-1.4,0.4-2.2c0-2-1.2-3.4-2.7-3.7c-0.9-0.2-1.4-0.9-1.4-1.6
						c0-1,0.7-1.1,1.2-1.1c0.5,0,0.9,0.1,0.9-0.2c0-0.4-0.4-0.6-1.1-0.6c-0.9,0-2.1,0.6-2.1,2c0,0.5,0.1,1,0.6,1.5
						c-1.1,0.2-2.1,1.1-2.1,2.5c0,0.9,0.2,1.7,0.9,1.7c0.7,0,0.1-0.6,0.1-1.6c0-1.1,1-1.6,2-1.6c1.4,0,2.6,1.2,2.6,2.9
						c0,1.9-1.5,3.1-3.8,3.1c-1.4,0-3.3-0.2-4.9-2.1c-2.6-2.9-4.1-5.3-4.1-9.8c0-5.7,4.1-10.7,10-12.3c1.2-0.4,2.2-1.5,2.2-3
						c0-1.2-0.7-2.2-2-2.2c-0.5,0-0.9,0.1-0.9,0.5s0.4,0.4,0.6,0.4c0.5,0,1.1,0.5,1.1,1.4c0,1.2-1,2-2.1,2c-1.4,0-2.2-1-2.2-2.4
						c0-2.6,3.1-4.3,5.4-5.5c-2.1-1-2.8-1.4-4.4-2.6c-0.4-0.4-0.5-0.7-0.5-1.2c0-0.6,0.4-1.1,0.9-1.1c0.4,0,0.6,0.2,0.6,0.6
						c0,0.4-0.2,0.4-0.2,0.6c0,0.2,0.1,0.4,0.4,0.4s0.9-0.2,0.9-1.2c0-0.7-0.5-1.5-1.6-1.5c-1.1,0-2,0.9-2,2.1
						c-0.9-0.7-1.8-1.6-2.7-2.6l-3.9-4.3c-1.1-1.2-0.5-3.6,1.1-3.6c0.9,0,1.2,0.6,1.2,1.1c0,1.1-1.1,0.6-1.1,1.2
						c0,0.2,0.1,0.5,0.5,0.5c0.9,0,1.7-0.6,1.7-1.9c0-1.1-1-2.1-2.3-2.1c-1.6,0-2.7,1.2-2.7,3l-1.2-1.4c-5.4-6-9.8-8.6-14.1-8.6
						c-1.6,0-3.1,0.5-3.9,1.1c-0.7-0.9-1.1-1.5-1.6-2.2c-0.5,0.7-0.9,1.4-1.6,2.2c-0.9-0.6-2.3-1.1-3.9-1.1c-4.3,0-8.7,2.6-14.1,8.6
						l-1.2,1.4c0-1.7-1.1-3-2.7-3c-1.4,0-2.3,1-2.3,2.1c0,1.2,0.9,1.9,1.7,1.9c0.4,0,0.5-0.2,0.5-0.5c0-0.6-1.1-0.1-1.1-1.2
						c0-0.5,0.4-1.1,1.2-1.1c1.6,0,2.2,2.4,1.1,3.6l-3.9,4.3c-0.9,1-1.8,1.9-2.7,2.6c0-1.2-0.9-2.1-2-2.1s-1.6,0.7-1.6,1.5
						c0,1,0.6,1.2,0.9,1.2c0.2,0,0.4-0.1,0.4-0.4c0-0.2-0.2-0.2-0.2-0.6c0-0.4,0.2-0.6,0.6-0.6c0.5,0,0.9,0.5,0.9,1.1
						c0,0.5-0.1,0.9-0.5,1.2c-1.5,1.5-2.3,1.6-4.4,2.6c2.3,1.1,5.4,2.9,5.4,5.5c0,1.4-0.9,2.4-2.2,2.4c-1.1,0-2.1-0.7-2.1-2
						c0-0.9,0.6-1.4,1.1-1.4c0.2,0,0.6,0,0.6-0.4s-0.4-0.5-0.9-0.5c-1.2,0-2,1-2,2.2c0,1.5,1,2.6,2.2,3c5.9,1.7,10,6.6,10,12.3
						c0,4.5-1.6,6.8-4.1,9.8c-1.6,1.9-3.6,2.1-4.9,2.1c-2.3,0-3.8-1.2-3.8-3.1c0-1.6,1.2-2.9,2.6-2.9c1,0,2,0.5,2,1.6
						c0,1-0.6,1.6,0.1,1.6c0.6,0,0.9-0.9,0.9-1.7c0-1.4-1-2.2-2.1-2.5c0.5-0.5,0.6-1,0.6-1.5c0-1.4-1.2-2-2.1-2
						c-0.7,0-1.1,0.2-1.1,0.6c0,0.4,0.4,0.2,0.9,0.2s1.2,0.1,1.2,1.1c0,0.7-0.5,1.4-1.4,1.6c-1.5,0.4-2.7,1.7-2.7,3.7
						c0,0.9,0.4,1.6,0.4,2.2c0,0.6-0.4,1-0.9,1c-1.2,0-0.6-1.5-1.4-1.5c-0.4,0-0.5,0.4-0.5,0.7c0,1,0.5,1.9,1.8,1.9
						c0.9,0,1.6-0.5,1.8-1.4c0.9,0.9,2.3,1.2,3.7,1.2c0.6,0,1.5-0.1,1.7-0.2c-4.3,4-5.3,6.1-6.3,8.3c-0.2-0.5-0.9-0.9-1.6-0.9
						c-1.2,0-1.8,0.7-1.8,1.9c0,0.2,0,1,0.6,1c0.5,0,0.2-0.5,0.2-0.9c0-0.5,0.4-0.9,1-0.9c1,0,1.2,0.9,1,2.2c-0.1,0.6-0.1,1.4-0.1,2
						c0,5.8,4.3,10.1,10,10.1c0.9,0,1.6-0.1,2.5-0.2l1.7,2.6c-1.2,0.4-2.1,1.5-2.1,2.7c0,1.6,1.2,2.9,2.8,2.9c1,0,1.7-0.5,1.7-1
						c0-0.4-0.2-0.5-0.5-0.5c-0.4,0-0.4,0.4-1.2,0.4c-1,0-1.7-0.7-1.7-1.7c0-1,0.9-1.7,2.1-1.7c2.3,0,3.4,2.7,5,5.5l1.6,2.7
						c2.6,4.5,6.8,7.1,10.2,7.1c0.5,0,1,0,1.5-0.1c1.5,1.5,2.9,4.2,3.6,5.5c0.6-1.2,2.1-4,3.6-5.5c0.5,0.1,1,0.1,1.5,0.1
						c3.4,0,7.6-2.6,10.2-7.1l1.6-2.7c1.6-2.7,2.7-5.5,5-5.5c1.2,0,2.1,0.7,2.1,1.7c0,1-0.7,1.7-1.7,1.7c-0.9,0-0.9-0.4-1.2-0.4
						c-0.2,0-0.5,0.1-0.5,0.5c0,0.5,0.7,1,1.7,1c1.6,0,2.8-1.2,2.8-2.9c0-1.2-0.9-2.4-2.1-2.7l1.7-2.6c0.9,0.1,1.6,0.2,2.5,0.2
						c5.7,0,10-4.2,10-10.1c0-0.6,0-1.4-0.1-2c-0.2-1.4,0-2.2,1-2.2c0.6,0,1,0.4,1,0.9c0,0.4-0.2,0.9,0.2,0.9c0.6,0,0.6-0.7,0.6-1
						C88.1,74.9,87.5,74.2,86.3,74.2L86.3,74.2z M83.1,95.5c-5.4,5.6-13.4,9.6-21,13.3c-5,2.5-10,5-13.8,8c-3.8-3-8.7-5.5-13.8-8
						c-7.6-3.7-15.6-7.7-21-13.3C6.6,88.5,3.3,81.3,3.3,73.1c0-7,2.7-12.8,8.8-20.6c0.5-0.6,1-1.2,1-1.7c0-0.5-0.5-1.5-0.7-2
						l-4.3-9.4c-1-2.1-2-4.1-2-6.2c0-1.7,1.1-3,2.6-4.2l6.1-5.6c0.2-0.2,0.2-0.6,0.1-0.9l-2-4.1c-0.2-0.5-0.2-0.9,0.1-1.1
						c6-4.1,11.1-5.3,18.3-7.3c6.9-1.9,13-3.5,16.8-6c3.8,2.5,10,4.1,16.8,6c7.2,2,12.2,3.5,18.3,7.3c0.4,0.2,0.4,0.6,0.1,1.1
						l-2,4.1c-0.1,0.2-0.1,0.6,0.1,0.9l6.1,5.6c1.5,1.2,2.6,2.5,2.6,4.2c0,2.1-1,4.1-2,6.2l-4.3,9.4c-0.2,0.5-0.7,1.5-0.7,2
						c0,0.5,0.5,1.1,1,1.7c6.6,7.5,8.8,13.7,8.8,20.6C93.3,81.3,89.9,88.5,83.1,95.5L83.1,95.5z M88.8,52.8c-1.1-1.4-1.7-2-1.7-2.5
						c0-0.5,0.4-1.2,0.7-2.1l3.7-8.2c1.1-2.5,2.1-4.6,2.1-7.2c0-1.9-0.7-3.7-2.6-5.3l-5.3-4.6c-0.5-0.4-0.5-1-0.2-1.5l2-4.5
						c0.1-0.2,0.1-0.6-0.2-0.9c-6-4.1-12.9-6.6-19.4-8.4C61.3,5.8,52.6,3.4,48.3,0c-4.3,3.4-13,5.7-19.5,7.6
						C22.2,9.4,15.4,11.9,9.3,16C9,16.3,9,16.6,9.1,16.9l2,4.5c0.2,0.5,0.2,1.1-0.2,1.5l-5.3,4.6c-1.8,1.6-2.6,3.5-2.6,5.3
						c0,2.6,1,4.7,2.1,7.2l3.7,8.2c0.4,0.9,0.7,1.6,0.7,2.1c0,0.5-0.6,1.1-1.7,2.5C2.2,59.8,0,65.5,0,73.1
						c0,10.6,5.2,18.6,11.1,24.7c6,6.2,14.4,10.3,22,14c5,2.5,10.3,5,15.2,8.9c4.9-4,10.2-6.5,15.2-8.9c7.6-3.7,16.1-7.8,22-14
						c5.9-6.1,11.1-14.2,11.1-24.7C96.6,65.5,94.4,59.8,88.8,52.8L88.8,52.8z">
      </path>
     </g>
    </g>
   </g>
  </g>
 </g>
</svg>